<svg width="116" height="28" viewBox="0 0 116 28" fill="none" xmlns="http://www.w3.org/2000/svg">
<rect width="28" height="28" rx="3.2" fill="#212121"/>
<path fill-rule="evenodd" clip-rule="evenodd" d="M3.99988 4L3.99988 9L13.9999 14L3.99988 19L3.99988 24L13.9999 19V24L23.9999 19V14V9L13.9999 4V9L3.99988 4ZM13.9999 9V14V19L23.9999 14L13.9999 9Z" fill="white"/>
<path d="M48.0179 11.7066H44.6305C44.5687 11.2684 44.4424 10.8791 44.2516 10.5388C44.0608 10.1934 43.8159 9.89951 43.5169 9.6572C43.2179 9.41488 42.8724 9.22927 42.4806 9.10038C42.0939 8.97148 41.6737 8.90704 41.22 8.90704C40.4003 8.90704 39.6862 9.11069 39.0778 9.51799C38.4695 9.92014 37.9977 10.5079 37.6626 11.2812C37.3275 12.0495 37.1599 12.9826 37.1599 14.0808C37.1599 15.2099 37.3275 16.1586 37.6626 16.9268C38.0029 17.695 38.4772 18.275 39.0856 18.6668C39.6939 19.0587 40.3977 19.2546 41.1968 19.2546C41.6454 19.2546 42.0604 19.1953 42.4419 19.0767C42.8286 18.9581 43.1715 18.7854 43.4705 18.5586C43.7695 18.3265 44.017 18.0456 44.2129 17.7156C44.414 17.3856 44.5532 17.0093 44.6305 16.5865L48.0179 16.602C47.9302 17.3289 47.7111 18.0301 47.3605 18.7055C47.0151 19.3757 46.5485 19.9764 45.9607 20.5074C45.3781 21.0333 44.6821 21.4509 43.8727 21.7603C43.0684 22.0644 42.1584 22.2165 41.1427 22.2165C39.73 22.2165 38.4669 21.8969 37.3532 21.2576C36.2448 20.6183 35.3683 19.6928 34.7238 18.4812C34.0845 17.2696 33.7649 15.8028 33.7649 14.0808C33.7649 12.3536 34.0897 10.8843 34.7393 9.67266C35.3889 8.46107 36.2705 7.53819 37.3842 6.90404C38.4978 6.26473 39.7507 5.94507 41.1427 5.94507C42.0604 5.94507 42.9111 6.07397 43.6948 6.33175C44.4836 6.58954 45.1822 6.96591 45.7906 7.46086C46.399 7.95065 46.8939 8.55129 47.2754 9.26278C47.6621 9.97427 47.9096 10.7889 48.0179 11.7066ZM52.8735 22.2243C52.1156 22.2243 51.4402 22.0928 50.8473 21.8299C50.2544 21.5618 49.7852 21.1674 49.4398 20.6466C49.0995 20.1207 48.9293 19.466 48.9293 18.6823C48.9293 18.0224 49.0505 17.4681 49.2928 17.0196C49.5351 16.571 49.8651 16.2101 50.2827 15.9369C50.7003 15.6636 51.1747 15.4574 51.7057 15.3182C52.2419 15.179 52.8039 15.081 53.3916 15.0243C54.0825 14.9521 54.6393 14.8851 55.0621 14.8232C55.4848 14.7562 55.7916 14.6582 55.9824 14.5294C56.1731 14.4005 56.2685 14.2097 56.2685 13.9571V13.9107C56.2685 13.4209 56.1138 13.0419 55.8045 12.7738C55.5003 12.5057 55.0672 12.3717 54.5053 12.3717C53.9123 12.3717 53.4406 12.5032 53.09 12.7661C52.7394 13.0239 52.5074 13.3487 52.394 13.7405L49.347 13.4931C49.5016 12.7713 49.8058 12.1474 50.2595 11.6215C50.7132 11.0905 51.2984 10.6832 52.015 10.3996C52.7368 10.1109 53.5721 9.96654 54.5207 9.96654C55.1807 9.96654 55.8122 10.0439 56.4154 10.1985C57.0238 10.3532 57.5626 10.593 58.0318 10.9178C58.5061 11.2426 58.8799 11.6602 59.1531 12.1706C59.4264 12.6759 59.563 13.2817 59.563 13.988V22H56.4387V20.3527H56.3458C56.1551 20.724 55.8999 21.0513 55.5802 21.3349C55.2606 21.6133 54.8765 21.8324 54.4279 21.9923C53.9794 22.1469 53.4612 22.2243 52.8735 22.2243ZM53.817 19.9506C54.3016 19.9506 54.7295 19.8552 55.1007 19.6645C55.472 19.4685 55.7633 19.2056 55.9746 18.8756C56.186 18.5457 56.2917 18.1719 56.2917 17.7543V16.4937C56.1886 16.5607 56.0468 16.6226 55.8664 16.6793C55.6911 16.7308 55.4926 16.7798 55.2709 16.8262C55.0492 16.8675 54.8275 16.9061 54.6058 16.9422C54.3841 16.9732 54.183 17.0015 54.0026 17.0273C53.6159 17.084 53.2782 17.1742 52.9895 17.298C52.7007 17.4217 52.4765 17.5893 52.3166 17.8007C52.1568 18.0069 52.0769 18.2647 52.0769 18.574C52.0769 19.0226 52.2393 19.3654 52.5641 19.6026C52.8941 19.8346 53.3117 19.9506 53.817 19.9506ZM61.2479 22V10.1212H64.4418V12.1938H64.5656C64.7821 11.4565 65.1456 10.8997 65.656 10.5234C66.1664 10.1418 66.7542 9.95107 67.4193 9.95107C67.5842 9.95107 67.7621 9.96138 67.9529 9.98201C68.1436 10.0026 68.3112 10.031 68.4556 10.0671V12.9904C68.3009 12.944 68.0869 12.9027 67.8137 12.8666C67.5404 12.8305 67.2904 12.8125 67.0635 12.8125C66.5789 12.8125 66.1458 12.9182 65.7643 13.1296C65.3879 13.3358 65.0889 13.6245 64.8672 13.9957C64.6506 14.3669 64.5424 14.7949 64.5424 15.2795V22H61.2479ZM79.1713 13.5085L76.1552 13.6941C76.1036 13.4363 75.9928 13.2043 75.8227 12.9981C75.6525 12.7867 75.4282 12.6192 75.1498 12.4954C74.8766 12.3665 74.5492 12.3021 74.1677 12.3021C73.6573 12.3021 73.2267 12.4104 72.8762 12.6269C72.5256 12.8383 72.3503 13.1218 72.3503 13.4776C72.3503 13.7612 72.4637 14.0009 72.6906 14.1968C72.9174 14.3927 73.3067 14.55 73.8583 14.6686L76.0083 15.1016C77.1631 15.3388 78.0241 15.7203 78.5913 16.2462C79.1584 16.7721 79.442 17.463 79.442 18.3188C79.442 19.0973 79.2125 19.7805 78.7537 20.3682C78.3 20.956 77.6761 21.4148 76.8822 21.7448C76.0933 22.0696 75.1833 22.232 74.1522 22.232C72.5797 22.232 71.3269 21.9046 70.3937 21.2498C69.4656 20.5899 68.9217 19.6928 68.7619 18.5586L72.0023 18.3884C72.1002 18.8679 72.3374 19.234 72.7138 19.4866C73.0901 19.7341 73.5722 19.8578 74.1599 19.8578C74.7374 19.8578 75.2014 19.7469 75.552 19.5253C75.9077 19.2984 76.0882 19.0071 76.0933 18.6514C76.0882 18.3523 75.9619 18.1074 75.7144 17.9167C75.4669 17.7207 75.0854 17.5712 74.5698 17.4681L72.5127 17.0582C71.3526 16.8262 70.4891 16.4241 69.9219 15.8518C69.36 15.2795 69.079 14.55 69.079 13.6632C69.079 12.9001 69.2852 12.2428 69.6977 11.6911C70.1153 11.1395 70.7004 10.7141 71.4532 10.4151C72.2111 10.1161 73.0979 9.96654 74.1135 9.96654C75.6138 9.96654 76.7945 10.2836 77.6555 10.9178C78.5217 11.5519 79.0269 12.4155 79.1713 13.5085ZM86.0125 22.232C84.8112 22.232 83.7723 21.9768 82.8959 21.4664C82.0246 20.9508 81.3517 20.2342 80.8774 19.3164C80.4031 18.3936 80.1659 17.3238 80.1659 16.107C80.1659 14.8799 80.4031 13.8076 80.8774 12.8898C81.3517 11.967 82.0246 11.2503 82.8959 10.7399C83.7723 10.2243 84.8112 9.96654 86.0125 9.96654C87.2138 9.96654 88.2501 10.2243 89.1214 10.7399C89.9979 11.2503 90.6733 11.967 91.1476 12.8898C91.6219 13.8076 91.8591 14.8799 91.8591 16.107C91.8591 17.3238 91.6219 18.3936 91.1476 19.3164C90.6733 20.2342 89.9979 20.9508 89.1214 21.4664C88.2501 21.9768 87.2138 22.232 86.0125 22.232ZM86.028 19.6799C86.5745 19.6799 87.0308 19.5253 87.3968 19.2159C87.7629 18.9014 88.0387 18.4735 88.2243 17.9321C88.4151 17.3908 88.5105 16.7747 88.5105 16.0838C88.5105 15.3929 88.4151 14.7768 88.2243 14.2355C88.0387 13.6941 87.7629 13.2662 87.3968 12.9517C87.0308 12.6372 86.5745 12.48 86.028 12.48C85.4763 12.48 85.0123 12.6372 84.6359 12.9517C84.2647 13.2662 83.9837 13.6941 83.793 14.2355C83.6074 14.7768 83.5146 15.3929 83.5146 16.0838C83.5146 16.7747 83.6074 17.3908 83.793 17.9321C83.9837 18.4735 84.2647 18.9014 84.6359 19.2159C85.0123 19.5253 85.4763 19.6799 86.028 19.6799ZM103.822 10.1212L99.6689 22H95.9568L91.8039 10.1212H95.284L97.751 18.6204H97.8747L100.334 10.1212H103.822ZM107.705 22.2243C106.947 22.2243 106.272 22.0928 105.679 21.8299C105.086 21.5618 104.617 21.1674 104.271 20.6466C103.931 20.1207 103.761 19.466 103.761 18.6823C103.761 18.0224 103.882 17.4681 104.124 17.0196C104.367 16.571 104.697 16.2101 105.114 15.9369C105.532 15.6636 106.006 15.4574 106.537 15.3182C107.073 15.179 107.635 15.081 108.223 15.0243C108.914 14.9521 109.471 14.8851 109.894 14.8232C110.316 14.7562 110.623 14.6582 110.814 14.5294C111.005 14.4005 111.1 14.2097 111.1 13.9571V13.9107C111.1 13.4209 110.945 13.0419 110.636 12.7738C110.332 12.5057 109.899 12.3717 109.337 12.3717C108.744 12.3717 108.272 12.5032 107.922 12.7661C107.571 13.0239 107.339 13.3487 107.225 13.7405L104.178 13.4931C104.333 12.7713 104.637 12.1474 105.091 11.6215C105.545 11.0905 106.13 10.6832 106.847 10.3996C107.568 10.1109 108.404 9.96654 109.352 9.96654C110.012 9.96654 110.644 10.0439 111.247 10.1985C111.855 10.3532 112.394 10.593 112.863 10.9178C113.338 11.2426 113.711 11.6602 113.985 12.1706C114.258 12.6759 114.395 13.2817 114.395 13.988V22H111.27V20.3527H111.177C110.987 20.724 110.731 21.0513 110.412 21.3349C110.092 21.6133 109.708 21.8324 109.259 21.9923C108.811 22.1469 108.293 22.2243 107.705 22.2243ZM108.648 19.9506C109.133 19.9506 109.561 19.8552 109.932 19.6645C110.303 19.4685 110.595 19.2056 110.806 18.8756C111.018 18.5457 111.123 18.1719 111.123 17.7543V16.4937C111.02 16.5607 110.878 16.6226 110.698 16.6793C110.523 16.7308 110.324 16.7798 110.102 16.8262C109.881 16.8675 109.659 16.9061 109.437 16.9422C109.216 16.9732 109.015 17.0015 108.834 17.0273C108.447 17.084 108.11 17.1742 107.821 17.298C107.532 17.4217 107.308 17.5893 107.148 17.8007C106.988 18.0069 106.908 18.2647 106.908 18.574C106.908 19.0226 107.071 19.3654 107.396 19.6026C107.726 19.8346 108.143 19.9506 108.648 19.9506Z" fill="white"/>
</svg>
